inDegrees=no
num_controls=7
num_derivatives=13
num_iterations=156
num_multipliers=7
num_parameters=0
num_slacks=7
num_states=26
objective=0.494314
objective_accelerations=0.011211
objective_balance=0.003957
objective_effort=0.017202
objective_height=0.361005
objective_ligament=0.100939
solver_duration=1950.688926
status=Solve_Succeeded
success=true
DataType=double
version=3
OpenSimVersion=4.5
endheader
time	/jointset/ground_pelvis/pelvis_tilt/value	/jointset/ground_pelvis/pelvis_tx/value	/jointset/ground_pelvis/pelvis_ty/value	/jointset/hip_l/hip_flexion_l/value	/jointset/hip_l/hip_adduction_l/value	/jointset/hip_l/hip_rotation_l/value	/jointset/back/lumbar_extension/value	/jointset/patellofemoral_l/patellar_flexion_l/value	/jointset/knee_l/knee_flexion_l/value	/jointset/knee_l/knee_adduction_l/value	/jointset/knee_l/knee_rotation_l/value	/jointset/ankle_l/ankle_angle_l/value	/jointset/subtalar_l/subtalar_angle_l/value	/jointset/ground_pelvis/pelvis_tilt/speed	/jointset/ground_pelvis/pelvis_tx/speed	/jointset/ground_pelvis/pelvis_ty/speed	/jointset/hip_l/hip_flexion_l/speed	/jointset/hip_l/hip_adduction_l/speed	/jointset/hip_l/hip_rotation_l/speed	/jointset/back/lumbar_extension/speed	/jointset/patellofemoral_l/patellar_flexion_l/speed	/jointset/knee_l/knee_flexion_l/speed	/jointset/knee_l/knee_adduction_l/speed	/jointset/knee_l/knee_rotation_l/speed	/jointset/ankle_l/ankle_angle_l/speed	/jointset/subtalar_l/subtalar_angle_l/speed	/forceset/tau_hip_flexion_l	/forceset/tau_hip_adduction_l	/forceset/tau_hip_rotation_l	/forceset/tau_knee_flexion_l	/forceset/tau_ankle_angle_l	/forceset/tau_subtalar_angle_l	/forceset/tau_lumbar_extension	lambda_cid13_p0	lambda_cid13_p1	lambda_cid13_p2	lambda_cid13_p3	lambda_cid13_p4	lambda_cid13_p5	lambda_cid14_p0	/jointset/ground_pelvis/pelvis_tilt/accel	/jointset/ground_pelvis/pelvis_tx/accel	/jointset/ground_pelvis/pelvis_ty/accel	/jointset/hip_l/hip_flexion_l/accel	/jointset/hip_l/hip_adduction_l/accel	/jointset/hip_l/hip_rotation_l/accel	/jointset/back/lumbar_extension/accel	/jointset/patellofemoral_l/patellar_flexion_l/accel	/jointset/knee_l/knee_flexion_l/accel	/jointset/knee_l/knee_adduction_l/accel	/jointset/knee_l/knee_rotation_l/accel	/jointset/ankle_l/ankle_angle_l/accel	/jointset/subtalar_l/subtalar_angle_l/accel	gamma_cid13_p0	gamma_cid13_p1	gamma_cid13_p2	gamma_cid13_p3	gamma_cid13_p4	gamma_cid13_p5	gamma_cid14_p0
1.5	0.07419138493400106	-0.001239583998803531	0.9210660719309324	0.3113499078986834	-0.2398211970007658	-0.3105058815010171	-0.7683013588695033	0.3103800355660417	0.310380035566053	-0.03675502776184059	-0.1744712744032159	-0.01701379119588635	0.05255630783104286	0.2539090552390184	0.2114020898403439	0.1188744691133851	-0.9632864246340815	0.1185295692463497	-0.2349437119153706	0.8445113524748821	-0.7124979671564302	-0.7124979671563592	0.0187298493650792	-0.0002399549565017976	0.009778015579149124	0.1300475731321365	-0.1481939706044253	0.03004178065219967	-0.007687788833523481	-0.1048468498920517	0.09886544491590793	0.02052421141517266	0.2508569117821758	-13.19599738233447	-8.945111263208949	3.646880773443304	-0.9107325336996199	-693.6709546832573	-70.84762290859837	-23.48057026618032	-0.2985489790259143	0.3464655860632762	-0.132140888701561	-0.2277334141583005	-0.02184013637672293	-0.04804822852850582	1.46656491943104	-0.3471092116915533	-0.3471092116915545	-0.3491477902128413	-0.002018903921375964	0.140066571271499	0.03761220970402802	2.074032051485394e-08	9.404437464235205e-09	-7.013755114177713e-08	-5.92098616248868e-09	3.28925658988881e-08	4.830102053850832e-10	1.360797605547926e-08
1.51	0.07671544930283529	0.0008915741707437545	0.9222480290109016	0.3017063656610494	-0.2386373828974838	-0.3128573843079376	-0.7597841064993196	0.303238487761114	0.3032384877611424	-0.03658580467923229	-0.174473750940932	-0.01690902468054324	0.05385825395730966	0.2508842930730582	0.214810005977128	0.1174972839366626	-0.965321030076348	0.118209516570713	-0.2353287846744506	0.8588334011444986	-0.7157106767023378	-0.7157106767022693	0.01509507538679556	-0.0002540570557059951	0.01118705237413219	0.1303216653922883	-0.1420269932022751	0.02850040159139293	-0.007626813793717388	-0.1059293854550348	0.1002155354242357	0.01927810150448655	0.2451920337447971	-12.7282411074242	-8.498126272297403	3.589668442219751	-0.9431491644457204	-692.0231027291162	-70.77827494573344	-23.42016408669058	-0.307366714128423	0.335022594723775	-0.1434480907882414	-0.1761724756154974	-0.04064802537930536	-0.02951389555401946	1.399166778062655	-0.293216965832054	-0.2932169658324899	-0.3735959483442073	-0.0009248746613051459	0.1430889734386607	0.01931424687369672	1.993072414163886e-08	1.611375967735949e-08	-6.791131203770496e-08	-6.365795305241589e-09	3.983717918843536e-08	9.79218826185145e-10	1.356559105818911e-08
1.52	0.07920868067426419	0.003056225095106307	0.9234156260873777	0.2920455076957238	-0.2374574813594025	-0.3152118932616396	-0.751126805254972	0.2960678398327695	0.2960678398328133	-0.03645352008574976	-0.1744763323019836	-0.01678981444928374	0.05516234230871856	0.2477424557571941	0.2181006408033973	0.1160024684147394	-0.9667495701728078	0.1177470562061881	-0.2355449412717794	0.8725211273075433	-0.7183179918399129	-0.7183179918398469	0.01134215154018841	-0.000260919624564788	0.01266675876219333	0.1304760181605573	-0.1358600158001247	0.02695902253058927	-0.00756583875394917	-0.1070119210180149	0.1015656259325669	0.01803199159380548	0.2395271557074163	-12.26263037577472	-8.050420275762772	3.531946779564823	-0.9914786104669226	-690.4078798280199	-70.71689105752235	-23.35382158462558	-0.32196400900669	0.3230093239603165	-0.1556669577417017	-0.1065203449969911	-0.05032167415436897	-0.01426499617825881	1.339700418116664	-0.2260303300250471	-0.2260303300250461	-0.3727777638775625	-0.0005709978522861322	0.1542004898871108	0.01366431132745661	1.908993858062594e-08	2.325742008590928e-08	-6.55062152323109e-08	-6.82679889531248e-09	4.721836926141244e-08	1.57918588713779e-09	1.352640748970024e-08
1.53	0.08166997056447182	0.005253158225775626	0.9245677045545491	0.2823733368141108	-0.2362829222222963	-0.3175677680560776	-0.7423359628048364	0.2888741130430607	0.2888741130430915	-0.03635935448399333	-0.1744789791238594	-0.01665550151744272	0.05646735141620909	0.2444988447092936	0.2212623405280648	0.1143944544646013	-0.9675800725815362	0.117139383337578	-0.2355999322860421	0.8855284300573374	-0.720320903664929	-0.7203209036648552	0.007471397583349413	-0.0002663303073657004	0.01420594930077583	0.1305034239013544	-0.1295578417175721	0.02534893060885559	-0.007501611893980942	-0.1082227772913417	0.1029793912379708	0.0167340760100372	0.2337159056374854	-11.7830052669173	-7.581428619081881	3.469414836861797	-0.999731528693932	-688.8037949887841	-70.64041653095477	-23.28152081686937	-0.3280604669818163	0.3092020641632399	-0.1661723442318946	-0.05563331587134636	-0.06980167647313583	0.00341015167739023	1.263405304021609	-0.1714549375421506	-0.1714549375410245	-0.397156600738691	-0.0002220284724419376	0.1552986435445596	-0.006076698162767643	1.821601450757783e-08	3.086256482709867e-08	-6.291108211926234e-08	-7.305009085658725e-09	5.506342216678372e-08	2.289396290752553e-09	1.349062543931272e-08
